<?xml version="1.0" encoding="UTF-8"?>
<!-- Aureum Technology GmbH · Logo waagerecht (weiss)
     Schrift in Pfade konvertiert — keine Schriftdatei nötig.
     Erzeugt von scripts/build-logo.py -->
<svg xmlns="http://www.w3.org/2000/svg" viewBox="0 0 760.85 140.85" width="760.85" height="140.85">
  <g transform="translate(0 0.00) scale(2.20078)">
  
  <rect x="6.5" y="6.5" width="51" height="51" fill="none" stroke="#FFFFFF" stroke-width="3"/>
  <path d="M10 32 H24 M40 32 H54" stroke="#FFFFFF" stroke-width="3"/>
  <circle cx="32" cy="32" r="9" fill="#FFFFFF" stroke="#FFFFFF" stroke-width="3"/>
  </g>
  <g transform="translate(174.85 75.35)">
  <g fill="#FFFFFF">
    <path transform="translate(0.000 0) scale(0.100000 -0.100000)" d="M15.27376688271761 0 344.4869133234024 687.4155982509255H562.9463168755174L892.2220755144954 0H681.7642391324043L629.5560069233179 114.07341722398996H267.3624330237508L215.57502834498882 0ZM331.6818533465266 258.2380505874753H565.2313573211432L502.0835696607828 402.1538292840123Q498.04521983861923 411.88611741364 490.94761565327644 429.3856008462608Q483.85001146793365 446.88508427888155 476.3002736531198 466.61924385279417Q468.75053583830595 486.3534034267068 462.3295664936304 503.3351135253906Q455.90859714895487 520.3168236240745 452.8026894778013 528.4101302400231H445.4113536030054Q438.14858738332987 509.7873786687851 428.59623492881656 485.6428375467658Q419.04388247430325 461.4982964247465 410.16373577713966 438.79469975456595Q401.2835890799761 416.0911030843854 394.82964100688696 401.6946519315243Z"/>
    <path transform="translate(94.700 0) scale(0.100000 -0.100000)" d="M471.1521911174059 -12Q340.3283502534032 -12 253.9313174635172 26.67048016190529Q167.5342846736312 65.34096032381058 124.60753763467073 138.7104258686304Q81.68079059571028 212.07989141345024 81.68079059571028 315.73334547132254V687.4155982509255H276.24135901778936V323.9992873221636Q276.24135901778936 234.24713761359453 327.0299579165876 184.65026001259685Q377.8185568153858 135.05338241159916 471.0948081985116 135.05338241159916Q564.7918871119618 135.05338241159916 615.6717896685004 184.65026001259685Q666.551692225039 234.24713761359453 666.551692225039 323.9992873221636V687.4155982509255H861.1122606471181V315.73334547132254Q861.1122606471181 212.07989141345024 818.1828989684582 138.7104258686304Q775.2535372897983 65.34096032381058 688.875679410994 26.67048016190529Q602.4978215321898 -12 471.1521911174059 -12Z"/>
    <path transform="translate(193.000 0) scale(0.100000 -0.100000)" d="M84.68630350381136 0V687.4155982509255H632.6270329579711Q707.7277113497257 687.4155982509255 756.8379062898457 656.9965977407992Q805.9481012299657 626.5775972306728 830.5079569742084 576.5499325953424Q855.067812718451 526.522267960012 855.067812718451 466.78315015882254Q855.067812718451 401.75394213199615 824.1112500056624 348.49393236637115Q793.1546872928739 295.23392260074615 731.3473555371165 264.5853334143758L872.2574193328619 0H653.205315053463L537.6685620173812 232.19793520867825H279.24687192589045V0ZM279.24687192589045 377.6201055124402H572.9474064931273Q610.9344787150621 377.6201055124402 633.3626461736858 400.6040680743754Q655.7908136323094 423.5880306363106 655.7908136323094 461.5225515887141Q655.7908136323094 486.94731678813696 645.742005251348 504.7893528677523Q635.6931968703866 522.6313889473677 617.2458545006812 531.9054417349398Q598.7985121309757 541.179494522512 572.9474064931273 541.179494522512H279.24687192589045Z"/>
    <path transform="translate(287.900 0) scale(0.100000 -0.100000)" d="M84.85845226049423 0V687.4155982509255H780.93530985713V540.7204311713576H279.8398482128978V419.7348713502288H719.3356098309159V277.22883247584105H279.8398482128978V146.6951670795679H788.7527025416493V0Z"/>
    <path transform="translate(376.200 0) scale(0.100000 -0.100000)" d="M471.1521911174059 -12Q340.3283502534032 -12 253.9313174635172 26.67048016190529Q167.5342846736312 65.34096032381058 124.60753763467073 138.7104258686304Q81.68079059571028 212.07989141345024 81.68079059571028 315.73334547132254V687.4155982509255H276.24135901778936V323.9992873221636Q276.24135901778936 234.24713761359453 327.0299579165876 184.65026001259685Q377.8185568153858 135.05338241159916 471.0948081985116 135.05338241159916Q564.7918871119618 135.05338241159916 615.6717896685004 184.65026001259685Q666.551692225039 234.24713761359453 666.551692225039 323.9992873221636V687.4155982509255H861.1122606471181V315.73334547132254Q861.1122606471181 212.07989141345024 818.1828989684582 138.7104258686304Q775.2535372897983 65.34096032381058 688.875679410994 26.67048016190529Q602.4978215321898 -12 471.1521911174059 -12Z"/>
    <path transform="translate(474.500 0) scale(0.100000 -0.100000)" d="M84.68630350381136 0V687.4155982509255H386.8426801264286L505.08110585063696 381.47292906045914Q512.2671724259853 363.2904913723469 521.7203773036599 335.34438721835613Q531.1735821813345 307.3982830643654 540.9016274660826 277.9129566550255Q550.6296727508307 248.42763024568558 557.915100954473 225.28657353669405H565.0350960716605Q571.683968886733 246.04498291015625 581.031124278903 273.8894666619599Q590.378279671073 301.7339504137635 600.2688723504543 330.47654271125793Q610.1594650298357 359.21913500875235 617.9820869937539 380.61718655377626L736.2205127179623 687.4155982509255H1030.2746357098222V0H836.287896476686V355.0601438358426Q836.287896476686 378.56232496351004 836.8192025758326 406.14881044998765Q837.3505086749792 433.73529593646526 838.3531233146787 459.59918350353837Q839.3557379543781 485.4630710706115 839.8149153068662 502.99835565686226H831.8149153068662Q826.2758626788855 484.7204940095544 817.7880786806345 458.8148251734674Q809.3002946823835 432.9091563373804 800.7212070263922 407.139945499599Q792.1421193704009 381.37073466181755 784.7786747589707 362.4735555499792L641.280878379941 0H464.1797556579113L320.1653990074992 362.410943351686Q310.7411122173071 387.5234859138727 301.57683519273996 414.01957339793444Q292.41255816817284 440.51566088199615 285.3047790527344 464.11186576634645Q278.1969999372959 487.70807065069675 273.191770657897 502.94097273796797H265.191770657897Q266.191770657897 487.5725016966462 266.75176821649075 462.93810541555285Q267.3117657750845 438.3037091344595 267.8430718742311 410.3546766228974Q268.3743779733777 382.4056441113353 268.3743779733777 355.0601438358426V0Z"/>
  </g>
  <g fill="#FFFFFF" transform="translate(0 62.14) scale(0.66161 1)">
    <path transform="translate(0.000 0) scale(0.044643 -0.044643)" d="M342 625V0H258V625H25V698H575V625Z"/>
    <path transform="translate(33.036 0) scale(0.044643 -0.044643)" d="M90 0V698H520V625H174V390H508V317H174V73H520V0Z"/>
    <path transform="translate(66.071 0) scale(0.044643 -0.044643)" d="M323 -12Q195 -12 132.5 81.0Q70 174 70 349Q70 524 132.5 617.0Q195 710 323 710Q371 710 406.0 697.0Q441 684 466.0 662.0Q491 640 508.0 612.5Q525 585 538 557L466 524Q457 547 445.0 567.5Q433 588 416.5 603.5Q400 619 377.5 628.0Q355 637 323 637Q240 637 199.5 574.0Q159 511 159 406V292Q159 187 199.5 124.0Q240 61 323 61Q355 61 377.5 70.0Q400 79 416.5 94.5Q433 110 445.0 130.5Q457 151 466 174L538 141Q525 112 508.0 85.0Q491 58 466.0 36.0Q441 14 406.0 1.0Q371 -12 323 -12Z"/>
    <path transform="translate(99.107 0) scale(0.044643 -0.044643)" d="M436 317H164V0H80V698H164V390H436V698H520V0H436Z"/>
    <path transform="translate(132.143 0) scale(0.044643 -0.044643)" d="M163 588H156V0H80V698H199L437 110H444V698H520V0H401Z"/>
    <path transform="translate(165.179 0) scale(0.044643 -0.044643)" d="M300 -12Q236 -12 190.0 12.5Q144 37 114.0 83.0Q84 129 70.0 196.0Q56 263 56 349Q56 434 70.0 501.5Q84 569 114.0 615.0Q144 661 190.0 685.5Q236 710 300 710Q364 710 410.0 685.5Q456 661 486.0 615.0Q516 569 530.0 501.5Q544 434 544 349Q544 263 530.0 196.0Q516 129 486.0 83.0Q456 37 410.0 12.5Q364 -12 300 -12ZM300 61Q342 61 371.0 77.5Q400 94 419.0 124.0Q438 154 446.5 196.5Q455 239 455 292V406Q455 458 446.5 501.0Q438 544 419.0 574.0Q400 604 371.0 620.5Q342 637 300 637Q258 637 229.0 620.5Q200 604 181.0 574.0Q162 544 153.5 501.0Q145 458 145 406V292Q145 239 153.5 196.5Q162 154 181.0 124.0Q200 94 229.0 77.5Q258 61 300 61Z"/>
    <path transform="translate(198.214 0) scale(0.044643 -0.044643)" d="M120 0V698H204V73H535V0Z"/>
    <path transform="translate(231.250 0) scale(0.044643 -0.044643)" d="M300 -12Q236 -12 190.0 12.5Q144 37 114.0 83.0Q84 129 70.0 196.0Q56 263 56 349Q56 434 70.0 501.5Q84 569 114.0 615.0Q144 661 190.0 685.5Q236 710 300 710Q364 710 410.0 685.5Q456 661 486.0 615.0Q516 569 530.0 501.5Q544 434 544 349Q544 263 530.0 196.0Q516 129 486.0 83.0Q456 37 410.0 12.5Q364 -12 300 -12ZM300 61Q342 61 371.0 77.5Q400 94 419.0 124.0Q438 154 446.5 196.5Q455 239 455 292V406Q455 458 446.5 501.0Q438 544 419.0 574.0Q400 604 371.0 620.5Q342 637 300 637Q258 637 229.0 620.5Q200 604 181.0 574.0Q162 544 153.5 501.0Q145 458 145 406V292Q145 239 153.5 196.5Q162 154 181.0 124.0Q200 94 229.0 77.5Q258 61 300 61Z"/>
    <path transform="translate(264.286 0) scale(0.044643 -0.044643)" d="M444 93H439Q430 73 418.0 54.0Q406 35 387.5 20.5Q369 6 343.0 -3.0Q317 -12 281 -12Q167 -12 111.5 80.0Q56 172 56 344Q56 524 117.0 617.0Q178 710 305 710Q354 710 390.0 697.0Q426 684 451.5 662.0Q477 640 494.0 612.5Q511 585 522 557L450 524Q441 547 429.5 567.5Q418 588 401.5 603.5Q385 619 362.0 628.0Q339 637 308 637Q224 637 184.5 574.0Q145 511 145 406V298Q145 245 153.0 201.5Q161 158 179.5 126.0Q198 94 227.5 76.5Q257 59 300 59Q368 59 406.0 100.0Q444 141 444 206V278H297V345H522V0H444Z"/>
    <path transform="translate(297.321 0) scale(0.044643 -0.044643)" d="M258 0V274L17 698H113L213 516L298 357H302L389 516L489 698H583L342 274V0Z"/>
    <path transform="translate(363.393 0) scale(0.044643 -0.044643)" d="M444 93H439Q430 73 418.0 54.0Q406 35 387.5 20.5Q369 6 343.0 -3.0Q317 -12 281 -12Q167 -12 111.5 80.0Q56 172 56 344Q56 524 117.0 617.0Q178 710 305 710Q354 710 390.0 697.0Q426 684 451.5 662.0Q477 640 494.0 612.5Q511 585 522 557L450 524Q441 547 429.5 567.5Q418 588 401.5 603.5Q385 619 362.0 628.0Q339 637 308 637Q224 637 184.5 574.0Q145 511 145 406V298Q145 245 153.0 201.5Q161 158 179.5 126.0Q198 94 227.5 76.5Q257 59 300 59Q368 59 406.0 100.0Q444 141 444 206V278H297V345H522V0H444Z"/>
    <path transform="translate(396.429 0) scale(0.044643 -0.044643)" d="M455 350V571H447L300 212L153 571H145V350V0H68V698H176L299 390H305L428 698H532V0H455Z"/>
    <path transform="translate(429.464 0) scale(0.044643 -0.044643)" d="M88 698H325Q415 698 466.0 649.0Q517 600 517 518Q517 455 486.5 419.0Q456 383 408 368V365Q467 351 505.0 312.5Q543 274 543 201Q543 159 529.0 122.0Q515 85 489.5 58.0Q464 31 429.5 15.5Q395 0 355 0H88ZM330 73Q388 73 421.0 99.0Q454 125 454 179V220Q454 273 421.0 299.5Q388 326 330 326H172V73ZM316 395Q369 395 399.0 418.5Q429 442 429 490V529Q429 577 399.0 601.0Q369 625 316 625H172V395Z"/>
    <path transform="translate(462.500 0) scale(0.044643 -0.044643)" d="M436 317H164V0H80V698H164V390H436V698H520V0H436Z"/>
    <path transform="translate(528.571 0) scale(0.044643 -0.044643)" d="M300 235Q259 235 242.5 252.0Q226 269 226 295V313Q226 339 242.5 356.0Q259 373 300 373Q341 373 357.5 356.0Q374 339 374 313V295Q374 269 357.5 252.0Q341 235 300 235Z"/>
    <path transform="translate(594.643 0) scale(0.044643 -0.044643)" d="M174 0H90V698H344Q441 698 492.0 645.0Q543 592 543 497Q543 412 499.0 361.0Q455 310 371 302L549 0H455L285 298H174ZM342 369Q395 369 424.5 395.5Q454 422 454 471V523Q454 572 424.5 598.5Q395 625 342 625H174V369Z"/>
    <path transform="translate(627.679 0) scale(0.044643 -0.044643)" d="M300 -12Q236 -12 190.0 12.5Q144 37 114.0 83.0Q84 129 70.0 196.0Q56 263 56 349Q56 434 70.0 501.5Q84 569 114.0 615.0Q144 661 190.0 685.5Q236 710 300 710Q364 710 410.0 685.5Q456 661 486.0 615.0Q516 569 530.0 501.5Q544 434 544 349Q544 263 530.0 196.0Q516 129 486.0 83.0Q456 37 410.0 12.5Q364 -12 300 -12ZM300 61Q342 61 371.0 77.5Q400 94 419.0 124.0Q438 154 446.5 196.5Q455 239 455 292V406Q455 458 446.5 501.0Q438 544 419.0 574.0Q400 604 371.0 620.5Q342 637 300 637Q258 637 229.0 620.5Q200 604 181.0 574.0Q162 544 153.5 501.0Q145 458 145 406V292Q145 239 153.5 196.5Q162 154 181.0 124.0Q200 94 229.0 77.5Q258 61 300 61Z"/>
    <path transform="translate(660.714 0) scale(0.044643 -0.044643)" d="M95 698H290Q418 698 481.0 610.0Q544 522 544 349Q544 176 481.0 88.0Q418 0 290 0H95ZM286 73Q370 73 412.5 131.0Q455 189 455 295V403Q455 509 412.5 567.0Q370 625 286 625H179V73Z"/>
    <path transform="translate(693.750 0) scale(0.044643 -0.044643)" d="M90 0V698H520V625H174V390H508V317H174V73H520V0Z"/>
    <path transform="translate(726.786 0) scale(0.044643 -0.044643)" d="M90 0 35 698H110L139 298L154 87H162L254 516H348L440 87H448L463 298L492 698H565L510 0H389L304 417H296L211 0Z"/>
    <path transform="translate(759.821 0) scale(0.044643 -0.044643)" d="M84 0V67H258V631H84V698H516V631H342V67H516V0Z"/>
    <path transform="translate(792.857 0) scale(0.044643 -0.044643)" d="M298 -12Q204 -12 144.0 22.5Q84 57 45 111L106 161Q147 110 192.5 85.0Q238 60 301 60Q377 60 417.0 95.0Q457 130 457 193Q457 244 428.0 272.5Q399 301 327 313L249 326Q198 335 163.5 353.0Q129 371 108.0 396.5Q87 422 78.0 452.5Q69 483 69 516Q69 612 132.0 661.0Q195 710 302 710Q386 710 443.5 682.0Q501 654 536 603L477 552Q448 590 407.0 614.0Q366 638 301 638Q230 638 192.0 608.0Q154 578 154 518Q154 471 182.5 441.5Q211 412 285 399L360 386Q411 377 446.0 359.0Q481 341 502.5 316.0Q524 291 533.0 260.0Q542 229 542 195Q542 98 478.5 43.0Q415 -12 298 -12Z"/>
    <path transform="translate(825.893 0) scale(0.044643 -0.044643)" d="M323 -12Q195 -12 132.5 81.0Q70 174 70 349Q70 524 132.5 617.0Q195 710 323 710Q371 710 406.0 697.0Q441 684 466.0 662.0Q491 640 508.0 612.5Q525 585 538 557L466 524Q457 547 445.0 567.5Q433 588 416.5 603.5Q400 619 377.5 628.0Q355 637 323 637Q240 637 199.5 574.0Q159 511 159 406V292Q159 187 199.5 124.0Q240 61 323 61Q355 61 377.5 70.0Q400 79 416.5 94.5Q433 110 445.0 130.5Q457 151 466 174L538 141Q525 112 508.0 85.0Q491 58 466.0 36.0Q441 14 406.0 1.0Q371 -12 323 -12Z"/>
    <path transform="translate(858.929 0) scale(0.044643 -0.044643)" d="M436 317H164V0H80V698H164V390H436V698H520V0H436Z"/>
  </g>
  </g>
</svg>
